{
    "asset": {
        "generator": "Khronos glTF Blender I/O v3.6.27",
        "version": "2.0"
    },
    "scene": 0,
    "scenes": [
        {
            "name": "Scene",
            "nodes": [
                0
            ]
        }
    ],
    "nodes": [
        {
            "mesh": 0,
            "name": "xjijbgx_LOD0_TIER3_000",
            "rotation": [
                0.7071068286895752,
                0,
                0,
                0.7071068286895752
            ],
            "scale": [
                0.009999999776482582,
                0.009999999776482582,
                0.009999999776482582
            ]
        }
    ],
    "materials": [
        {
            "doubleSided": true,
            "name": "MI_xjijbgx",
            "normalTexture": {
                "index": 0
            },
            "occlusionTexture": {
                "index": 1
            },
            "pbrMetallicRoughness": {
                "baseColorTexture": {
                    "index": 2
                },
                "metallicRoughnessTexture": {
                    "index": 1
                }
            },
            "extras": {
                "type": "fuzz"
            }
        }
    ],
    "meshes": [
        {
            "name": "S_xjijbgx_tier_3",
            "primitives": [
                {
                    "attributes": {
                        "POSITION": 0,
                        "NORMAL": 1,
                        "TEXCOORD_0": 2,
                        "TANGENT": 3
                    },
                    "indices": 4,
                    "material": 0
                }
            ]
        }
    ],
    "textures": [
        {
            "sampler": 0,
            "source": 0
        },
        {
            "sampler": 0,
            "source": 1
        },
        {
            "sampler": 0,
            "source": 2
        },
        {
            "sampler": 0,
            "source": 3
        }
    ],
    "images": [
        {
            "mimeType": "image/jpeg",
            "name": "T_xjijbgx_1K_N",
            "uri": "Textures/T_xjijbgx_1K_N.jpg"
        },
        {
            "mimeType": "image/jpeg",
            "name": "T_xjijbgx_1K_ORM",
            "uri": "Textures/T_xjijbgx_1K_ORM.jpg",
            "extras": {
                "compression": "mask"
            }
        },
        {
            "mimeType": "image/jpeg",
            "name": "T_xjijbgx_1K_B",
            "uri": "Textures/T_xjijbgx_1K_B.jpg"
        },
        {
            "mimeType": "image/jpeg",
            "name": "T_xjijbgx_1K_F",
            "uri": "Textures/T_xjijbgx_1K_F.jpg"
        }
    ],
    "accessors": [
        {
            "bufferView": 0,
            "componentType": 5126,
            "count": 1198,
            "max": [
                58.73834991455078,
                44.90388870239258,
                4.795251846313477
            ],
            "min": [
                -58.79082489013672,
                -44.75606155395508,
                -50.5709228515625
            ],
            "type": "VEC3"
        },
        {
            "bufferView": 1,
            "componentType": 5126,
            "count": 1198,
            "type": "VEC3"
        },
        {
            "bufferView": 2,
            "componentType": 5126,
            "count": 1198,
            "type": "VEC2"
        },
        {
            "bufferView": 3,
            "componentType": 5126,
            "count": 1198,
            "type": "VEC4"
        },
        {
            "bufferView": 4,
            "componentType": 5123,
            "count": 5796,
            "type": "SCALAR"
        }
    ],
    "bufferViews": [
        {
            "buffer": 0,
            "byteLength": 14376,
            "byteOffset": 0,
            "target": 34962
        },
        {
            "buffer": 0,
            "byteLength": 14376,
            "byteOffset": 14376,
            "target": 34962
        },
        {
            "buffer": 0,
            "byteLength": 9584,
            "byteOffset": 28752,
            "target": 34962
        },
        {
            "buffer": 0,
            "byteLength": 19168,
            "byteOffset": 38336,
            "target": 34962
        },
        {
            "buffer": 0,
            "byteLength": 11592,
            "byteOffset": 57504,
            "target": 34963
        }
    ],
    "samplers": [
        {
            "magFilter": 9729,
            "minFilter": 9987
        }
    ],
    "buffers": [
        {
            "byteLength": 69096,
            "uri": "xjijbgx_tier_3.bin"
        }
    ]
}